# xmcd
#
# Track frame offsets:
#   150
#   16920
#   53795
#   70522
#   92686
#   111619
#   133020
#   154865
#   197397
#
# Disc length: 4717 seconds
#
# Revision: 0
# Processed by: cddbd v1.5.2PL0 Copyright (c) Steve Scherf et al.
# Submitted via: GXTranscoder 2.0.1939
#
DISCID=71126b09
DTITLE=Die Fantastischen Vier - MTV Unplugged 2 CD2
DYEAR=1900
DGENRE=Rap
TTITLE0=Mission Ypsilon
TTITLE1=Was wollen wir noch mehr?
TTITLE2=Bring it back
TTITLE3=Gebt uns ruhig die Schuld
TTITLE4=Kaputt
TTITLE5=Einfach sein
TTITLE6=Populär
TTITLE7=Troy
TTITLE8=Video Hinter den Kulissen
EXTD=
EXTT0=
EXTT1=
EXTT2=
EXTT3=
EXTT4=
EXTT5=
EXTT6=
EXTT7=
EXTT8=
PLAYORDER=
